<svg xmlns="http://www.w3.org/2000/svg" xmlns:xlink="http://www.w3.org/1999/xlink" version="1.1" id="Layer_1" x="0px" y="0px" style="enable-background:new 0 0 800 300;" xml:space="preserve" viewBox="162.7 71.8 474.7 156.4">
<style type="text/css">
	.st0{fill:#000A30;}
	.st1{fill:url(#SVGID_1_);}
	.st2{fill:url(#SVGID_00000000201537172410617620000000201901866666782899_);}
	.st3{fill:url(#SVGID_00000057108754372490729480000005285282033784566963_);}
	.st4{fill:url(#SVGID_00000152970267248330581300000013065167905878918046_);}
	.st5{fill:url(#SVGID_00000067196180865267594780000012960935321392329399_);}
	.st6{fill:url(#SVGID_00000000199443422613209580000012214364493500542614_);}
	.st7{fill:url(#SVGID_00000093856291542344332240000012598946671992831108_);}
	.st8{fill:url(#SVGID_00000161593595098037974540000016373865018693376130_);}
	.st9{fill:url(#SVGID_00000051368643910030477690000015368090604928923836_);}
	.st10{fill:url(#SVGID_00000033340421518305953100000000148695353756846723_);}
	.st11{fill:url(#SVGID_00000172407823929994166080000015664076457785694365_);}
	.st12{fill:url(#SVGID_00000183957330604801568370000011821165392133697970_);}
	.st13{fill:url(#SVGID_00000150806084670829272930000013642190217834124722_);}
</style>
<g>
	<g>
		<g>
			<path class="st0" d="M209.8,114.3v10.4H192v45.2h-11.5v-45.2h-17.8v-10.4H209.8z"/>
			<path class="st0" d="M235.2,127c2.3,0,4.6,0.5,6.9,1.6c2.3,1.1,4.3,2.5,5.8,4.3V128h10.6v42.1H248V163c-1.2,2.3-3,4.2-5.3,5.9     s-5.1,2.5-8.2,2.5c-3.4,0-6.5-0.9-9.4-2.6c-2.9-1.7-5.2-4.2-6.9-7.5c-1.7-3.3-2.6-7.3-2.6-11.9c0-4.7,0.9-8.7,2.6-12     c1.8-3.3,4.1-5.9,7.1-7.7C228.3,127.9,231.6,127,235.2,127z M237.4,137.3c-2.2,0-4.1,0.6-5.7,1.7c-1.6,1.1-2.8,2.6-3.7,4.5     c-0.9,1.8-1.3,3.8-1.3,5.9c0,3.2,1,5.9,2.9,8.1c1.9,2.2,4.5,3.3,7.6,3.3c1.9,0,3.7-0.5,5.3-1.5c1.6-1,3-2.4,4-4.2     c1-1.8,1.5-4,1.5-6.5v-6c-1.5-1.6-3.1-2.9-4.9-3.8C241.4,137.8,239.5,137.3,237.4,137.3z"/>
			<path class="st0" d="M285.2,127c2.6,0,5,0.4,7.3,1.2c2.2,0.8,3.9,1.7,5.2,2.7v9.3c-1.3-0.9-3-1.8-4.9-2.6c-1.9-0.8-3.9-1.3-6-1.3     c-2,0-3.6,0.4-4.8,1.3c-1.2,0.9-1.8,1.9-1.8,3.2c0,0.9,0.3,1.7,1,2.5c0.7,0.8,1.9,1.4,3.8,2l4.8,1.6c6.4,1.9,9.6,5.6,9.6,11.1     c0,2.6-0.7,4.9-2.2,7c-1.5,2-3.4,3.6-5.9,4.8c-2.5,1.2-5.2,1.8-8.2,1.8c-2.8,0-5.6-0.4-8.3-1.3c-2.7-0.9-4.7-1.9-6.1-2.9v-9.3     c1.1,0.7,2.3,1.4,3.8,2.1s3.1,1.2,4.7,1.6c1.6,0.4,3.1,0.6,4.4,0.6c2.1,0,3.7-0.4,4.9-1.1c1.1-0.8,1.7-1.8,1.7-3.2     c0-1.1-0.5-1.9-1.4-2.5c-0.9-0.6-2.3-1.2-4.2-1.8l-5.2-1.8c-3.2-1.1-5.4-2.6-6.7-4.5c-1.2-1.9-1.8-4.3-1.8-6.9s0.7-5,2-7     c1.4-2,3.3-3.5,5.7-4.7C279.2,127.5,282,127,285.2,127z"/>
			<path class="st0" d="M319,110.1v36.7l17.2-18.8h13.3l-18.2,18.3l19.1,23.8H337l-12.8-16.8l-5.3,5.3v11.5h-10.6v-60H319z"/>
		</g>
	</g>
	<g>
		<g>
			<path class="st0" d="M513.4,114.3c2.6,0,5.2,0.4,7.7,1.3c2.5,0.9,4.8,2.2,6.8,3.9c2,1.7,3.6,3.8,4.8,6.2c1.2,2.4,1.8,5.2,1.8,8.3     c0,3.8-1,7.1-2.9,10s-4.5,5.2-7.6,6.9c-3.2,1.7-6.6,2.5-10.3,2.5c-2.5,0-4.8-0.3-6.8-0.8c-2-0.5-3.7-1.1-5-1.8v19.2h-11.6v-55.9     H513.4z M501.9,125.1v16.5c1.2,0.5,2.7,0.9,4.5,1.3c1.8,0.4,3.5,0.5,5.4,0.5c3.3,0,6-0.9,8-2.8c2-1.9,3-4.1,3-6.6     c0-2.9-1.1-5.2-3.3-6.7c-2.2-1.5-4.8-2.3-7.8-2.3H501.9z"/>
			<path class="st0" d="M561,127c2.3,0,4.6,0.5,6.9,1.6c2.3,1.1,4.3,2.5,5.8,4.3V128h10.6v42.1h-10.6V163c-1.2,2.3-3,4.2-5.3,5.9     c-2.3,1.6-5.1,2.5-8.2,2.5c-3.4,0-6.5-0.9-9.4-2.6c-2.9-1.7-5.2-4.2-6.9-7.5c-1.7-3.3-2.6-7.3-2.6-11.9c0-4.7,0.9-8.7,2.6-12     c1.8-3.3,4.1-5.9,7.1-7.7C554.1,127.9,557.4,127,561,127z M563.2,137.3c-2.2,0-4.1,0.6-5.7,1.7c-1.6,1.1-2.8,2.6-3.7,4.5     c-0.9,1.8-1.3,3.8-1.3,5.9c0,3.2,1,5.9,2.9,8.1s4.5,3.3,7.6,3.3c1.9,0,3.7-0.5,5.3-1.5c1.6-1,3-2.4,4-4.2c1-1.8,1.5-4,1.5-6.5v-6     c-1.5-1.6-3.1-2.9-4.9-3.8C567.1,137.8,565.2,137.3,563.2,137.3z"/>
			<path class="st0" d="M637.4,110.1v60h-10.6V163c-1.2,2.3-3,4.2-5.3,5.9s-5.1,2.5-8.2,2.5c-3.4,0-6.5-0.9-9.4-2.6     c-2.9-1.7-5.2-4.2-6.9-7.5c-1.7-3.3-2.6-7.3-2.6-11.9c0-4.7,0.9-8.7,2.6-12c1.8-3.3,4.1-5.9,7.1-7.7c3-1.8,6.3-2.7,9.9-2.7     c2.3,0,4.6,0.5,6.9,1.6c2.3,1.1,4.3,2.5,5.8,4.3v-22.7H637.4z M616.2,137.4c-2.2,0-4.1,0.6-5.7,1.7c-1.6,1.1-2.8,2.6-3.7,4.4     c-0.9,1.8-1.3,3.8-1.3,5.9c0,3.2,1,5.9,2.9,8.1s4.5,3.3,7.6,3.3c1.9,0,3.7-0.5,5.3-1.5c1.6-1,3-2.4,4-4.2c1-1.8,1.5-4,1.5-6.5v-6     c-1.5-1.6-3.1-2.9-4.9-3.8C620.1,137.8,618.2,137.4,616.2,137.4z"/>
		</g>
	</g>
	<g>
		<linearGradient id="SVGID_1_" gradientUnits="userSpaceOnUse" x1="353.2157" y1="219.5537" x2="581.409" y2="178.4226">
			<stop offset="0" style="stop-color:#33CCFF"/>
			<stop offset="1" style="stop-color:#4481EB"/>
		</linearGradient>
		<path class="st1" d="M357.5,227.9V208h8.3c1.3,0,2.3,0.2,3.2,0.6c0.9,0.4,1.5,0.9,2,1.7c0.4,0.7,0.7,1.7,0.7,2.7s-0.3,2-0.9,2.8    c-0.6,0.8-1.4,1.3-2.5,1.6v-0.6c0.9,0.2,1.7,0.5,2.3,1c0.7,0.5,1.2,1.1,1.6,1.8c0.4,0.7,0.6,1.5,0.6,2.5c0,0.9-0.1,1.8-0.4,2.5    c-0.3,0.7-0.7,1.3-1.3,1.8c-0.6,0.5-1.3,0.9-2.1,1.1c-0.8,0.3-1.7,0.4-2.8,0.4H357.5z M360.6,216.2h5.1c0.6,0,1.1-0.1,1.5-0.3    c0.4-0.2,0.8-0.5,1.1-0.9c0.3-0.4,0.4-0.9,0.4-1.4c0-0.9-0.3-1.5-0.9-2c-0.6-0.5-1.4-0.7-2.4-0.7h-4.7V216.2z M360.6,224.9h5.3    c0.8,0,1.4-0.1,2-0.3c0.5-0.2,1-0.6,1.3-1c0.3-0.4,0.4-1,0.4-1.6c0-0.6-0.2-1.1-0.5-1.5c-0.3-0.4-0.8-0.7-1.3-1    c-0.6-0.2-1.2-0.3-2-0.3h-5.2V224.9z"/>
		
			<linearGradient id="SVGID_00000049910157712703128210000008623686749318366121_" gradientUnits="userSpaceOnUse" x1="354.0664" y1="224.2732" x2="582.2596" y2="183.142">
			<stop offset="0" style="stop-color:#33CCFF"/>
			<stop offset="1" style="stop-color:#4481EB"/>
		</linearGradient>
		<path style="fill:url(#SVGID_00000049910157712703128210000008623686749318366121_);" d="M383.1,227.9V208h12.5v3h-9.5v14h9.5v3    H383.1z M384.5,219.1v-3h9.6v3H384.5z"/>
		
			<linearGradient id="SVGID_00000110439768290655518210000010045502437740739465_" gradientUnits="userSpaceOnUse" x1="349.7411" y1="231.23" x2="577.9344" y2="190.0989">
			<stop offset="0" style="stop-color:#33CCFF"/>
			<stop offset="1" style="stop-color:#4481EB"/>
		</linearGradient>
		<path style="fill:url(#SVGID_00000110439768290655518210000010045502437740739465_);" d="M423.6,228.2c-1.4,0-2.7-0.3-3.9-0.8    c-1.2-0.5-2.2-1.2-3.1-2.1s-1.6-2-2-3.2c-0.5-1.2-0.7-2.6-0.7-4.1c0-1.5,0.2-2.8,0.7-4.1c0.5-1.2,1.2-2.3,2-3.2    c0.9-0.9,1.9-1.6,3.1-2.1c1.2-0.5,2.5-0.8,3.9-0.8c1.4,0,2.7,0.3,3.9,0.8c1.2,0.5,2.2,1.2,3.1,2.2c0.9,0.9,1.6,2,2,3.3    c0.5,1.2,0.7,2.6,0.7,4.1c0,1.5-0.2,2.8-0.7,4.1c-0.5,1.2-1.2,2.3-2,3.3c-0.9,0.9-1.9,1.7-3.1,2.2    C426.3,227.9,425,228.2,423.6,228.2z M423.6,225.2c1,0,1.9-0.2,2.7-0.5c0.8-0.4,1.5-0.9,2.1-1.5c0.6-0.7,1-1.4,1.4-2.3    s0.5-1.8,0.5-2.9c0-1-0.2-2-0.5-2.9s-0.8-1.6-1.4-2.3c-0.6-0.7-1.3-1.2-2.1-1.5c-0.8-0.4-1.7-0.5-2.7-0.5c-1,0-1.9,0.2-2.7,0.5    c-0.8,0.4-1.5,0.9-2.1,1.5c-0.6,0.6-1.1,1.4-1.4,2.3c-0.3,0.9-0.5,1.9-0.5,2.9c0,1,0.2,2,0.5,2.9c0.3,0.9,0.8,1.7,1.4,2.3    c0.6,0.6,1.3,1.1,2.1,1.5C421.8,225,422.6,225.2,423.6,225.2z"/>
		
			<linearGradient id="SVGID_00000081641633349892917820000000393900822854711457_" gradientUnits="userSpaceOnUse" x1="350.6206" y1="236.1094" x2="578.8138" y2="194.9783">
			<stop offset="0" style="stop-color:#33CCFF"/>
			<stop offset="1" style="stop-color:#4481EB"/>
		</linearGradient>
		<path style="fill:url(#SVGID_00000081641633349892917820000000393900822854711457_);" d="M443.7,227.9V208h8.5    c1.1,0,2.2,0.3,3.1,0.8c1,0.6,1.7,1.3,2.3,2.3c0.6,1,0.9,2,0.9,3.2c0,1.1-0.3,2.1-0.9,3c-0.6,0.9-1.3,1.7-2.3,2.2    c-0.9,0.6-2,0.8-3.2,0.8h-5.4v7.5H443.7z M446.8,217.4h5.7c0.5,0,1-0.1,1.5-0.4c0.4-0.3,0.8-0.7,1-1.1c0.2-0.5,0.4-1,0.4-1.6    c0-0.7-0.2-1.2-0.5-1.8c-0.3-0.5-0.8-0.9-1.3-1.2c-0.6-0.3-1.2-0.4-1.9-0.4h-4.9V217.4z M455.5,227.9l-5.1-9l3.2-0.7l5.6,9.7    L455.5,227.9z"/>
		
			<linearGradient id="SVGID_00000040566205179091260090000012932544788155982472_" gradientUnits="userSpaceOnUse" x1="351.4688" y1="240.8155" x2="579.6621" y2="199.6843">
			<stop offset="0" style="stop-color:#33CCFF"/>
			<stop offset="1" style="stop-color:#4481EB"/>
		</linearGradient>
		<path style="fill:url(#SVGID_00000040566205179091260090000012932544788155982472_);" d="M478.3,228.2c-1.4,0-2.8-0.3-4-0.8    c-1.3-0.5-2.4-1.2-3.3-2.2c-0.9-0.9-1.7-2-2.2-3.3c-0.5-1.2-0.8-2.6-0.8-4c0-1.4,0.3-2.7,0.8-4c0.5-1.2,1.3-2.3,2.2-3.2    c0.9-0.9,2-1.6,3.3-2.1c1.3-0.5,2.6-0.8,4-0.8c1,0,2,0.1,2.9,0.4c1,0.3,1.8,0.7,2.6,1.2c0.8,0.5,1.4,1.1,1.9,1.8l-2,2.1    c-0.6-0.5-1.2-1-1.8-1.4c-0.6-0.4-1.2-0.6-1.8-0.8c-0.6-0.2-1.3-0.3-1.9-0.3c-1,0-2,0.2-2.8,0.5c-0.9,0.4-1.6,0.9-2.3,1.5    c-0.7,0.6-1.2,1.4-1.5,2.3c-0.4,0.9-0.5,1.8-0.5,2.8c0,1,0.2,1.9,0.6,2.8c0.4,0.9,0.9,1.7,1.6,2.3c0.7,0.7,1.5,1.2,2.3,1.6    c0.9,0.4,1.8,0.6,2.8,0.6c0.7,0,1.4-0.1,2.1-0.3c0.7-0.2,1.3-0.5,1.8-0.9c0.5-0.4,0.9-0.9,1.2-1.4c0.3-0.5,0.4-1.1,0.4-1.7v-0.6    l0.4,0.4h-6.1v-3h8.8c0,0.2,0.1,0.4,0.1,0.6s0,0.4,0,0.6c0,0.2,0,0.4,0,0.5c0,1.3-0.2,2.5-0.7,3.6c-0.5,1.1-1.1,2-1.9,2.8    c-0.8,0.8-1.7,1.4-2.8,1.8C480.7,227.9,479.5,228.2,478.3,228.2z"/>
		
			<linearGradient id="SVGID_00000111152936177476343320000013701515892115825803_" gradientUnits="userSpaceOnUse" x1="352.3989" y1="245.9754" x2="580.5922" y2="204.8442">
			<stop offset="0" style="stop-color:#33CCFF"/>
			<stop offset="1" style="stop-color:#4481EB"/>
		</linearGradient>
		<path style="fill:url(#SVGID_00000111152936177476343320000013701515892115825803_);" d="M495,227.9l7.7-19.9h3.1l7.7,19.9h-3.3    l-4.6-12c-0.1-0.1-0.2-0.5-0.3-1c-0.2-0.5-0.3-1.1-0.6-1.7c-0.2-0.6-0.4-1.2-0.6-1.7c-0.2-0.5-0.3-0.9-0.3-1l0.7,0    c-0.1,0.3-0.3,0.7-0.4,1.2c-0.2,0.5-0.3,1-0.5,1.6c-0.2,0.6-0.4,1.1-0.5,1.6c-0.2,0.5-0.3,0.9-0.4,1.2l-4.5,11.9H495z     M498.4,222.9l1.1-3h9l1.3,3H498.4z"/>
		
			<linearGradient id="SVGID_00000183932226152837365960000000011635874205614493_" gradientUnits="userSpaceOnUse" x1="353.1402" y1="250.0882" x2="581.3335" y2="208.9571">
			<stop offset="0" style="stop-color:#33CCFF"/>
			<stop offset="1" style="stop-color:#4481EB"/>
		</linearGradient>
		<path style="fill:url(#SVGID_00000183932226152837365960000000011635874205614493_);" d="M523.1,227.9V208h2.8l12.2,16.3l-0.5,0.3    c-0.1-0.5-0.1-1-0.2-1.6c-0.1-0.6-0.1-1.2-0.2-1.8c0-0.6-0.1-1.3-0.1-2c0-0.7-0.1-1.5-0.1-2.2c0-0.8,0-1.6,0-2.4V208h3.1v19.9    h-2.8l-12-15.7l0.3-0.4c0.1,1.2,0.2,2.1,0.2,2.9c0.1,0.8,0.1,1.5,0.2,2c0,0.6,0.1,1,0.1,1.4c0,0.4,0,0.6,0,0.9c0,0.2,0,0.4,0,0.6    v8.3H523.1z"/>
		
			<linearGradient id="SVGID_00000039843940052967628100000002278569312521434293_" gradientUnits="userSpaceOnUse" x1="353.9035" y1="254.3229" x2="582.0968" y2="213.1918">
			<stop offset="0" style="stop-color:#33CCFF"/>
			<stop offset="1" style="stop-color:#4481EB"/>
		</linearGradient>
		<path style="fill:url(#SVGID_00000039843940052967628100000002278569312521434293_);" d="M551.1,227.9V225h3.2v-14.2h-3.2V208h9.5    v2.8h-3.2V225h3.2v2.8H551.1z"/>
		
			<linearGradient id="SVGID_00000140730519924398132450000015148433914967141517_" gradientUnits="userSpaceOnUse" x1="354.6207" y1="258.3018" x2="582.814" y2="217.1706">
			<stop offset="0" style="stop-color:#33CCFF"/>
			<stop offset="1" style="stop-color:#4481EB"/>
		</linearGradient>
		<path style="fill:url(#SVGID_00000140730519924398132450000015148433914967141517_);" d="M570.6,227.9v-2.2l11.4-15.2l0.4,0.5h-11    v-3h14.4v2.2l-11.3,15.2l-0.5-0.5h12.1v3H570.6z"/>
		
			<linearGradient id="SVGID_00000131342242649144912030000016138732881543391165_" gradientUnits="userSpaceOnUse" x1="355.3813" y1="262.5215" x2="583.5745" y2="221.3903">
			<stop offset="0" style="stop-color:#33CCFF"/>
			<stop offset="1" style="stop-color:#4481EB"/>
		</linearGradient>
		<path style="fill:url(#SVGID_00000131342242649144912030000016138732881543391165_);" d="M596.6,227.9V208h12.5v3h-9.5v14h9.5v3    H596.6z M598,219.1v-3h9.6v3H598z"/>
		
			<linearGradient id="SVGID_00000150784585506811553720000009765526072340251273_" gradientUnits="userSpaceOnUse" x1="356.0671" y1="266.3261" x2="584.2603" y2="225.195">
			<stop offset="0" style="stop-color:#33CCFF"/>
			<stop offset="1" style="stop-color:#4481EB"/>
		</linearGradient>
		<path style="fill:url(#SVGID_00000150784585506811553720000009765526072340251273_);" d="M620.2,227.9V208h7.8    c1.4,0,2.7,0.2,3.9,0.7c1.1,0.5,2.1,1.2,2.9,2c0.8,0.9,1.4,1.9,1.9,3.2c0.4,1.2,0.7,2.6,0.7,4c0,1.5-0.2,2.8-0.7,4.1    c-0.4,1.2-1.1,2.3-1.9,3.2c-0.8,0.9-1.8,1.6-2.9,2c-1.2,0.5-2.4,0.7-3.9,0.7H620.2z M623.3,225.2l-0.1-0.3h4.7    c1,0,1.9-0.2,2.7-0.5c0.8-0.3,1.5-0.8,2-1.4c0.5-0.6,1-1.3,1.2-2.2c0.3-0.9,0.4-1.9,0.4-2.9c0-1.1-0.1-2.1-0.4-2.9    c-0.3-0.9-0.7-1.6-1.3-2.2c-0.6-0.6-1.2-1.1-2-1.4c-0.8-0.3-1.7-0.5-2.7-0.5h-4.8l0.2-0.3V225.2z"/>
	</g>
	<g>
		
			<linearGradient id="SVGID_00000023971191125460302240000006074536126179925915_" gradientUnits="userSpaceOnUse" x1="357.5184" y1="128.7494" x2="468.3694" y2="128.7494">
			<stop offset="0" style="stop-color:#33CCFF"/>
			<stop offset="1" style="stop-color:#4481EB"/>
		</linearGradient>
		<path style="fill:url(#SVGID_00000023971191125460302240000006074536126179925915_);" d="M468.4,145.5c0,1.1-0.7,3.2-0.7,3.3    c-2.8,7.4-7.2,14.3-13,20.1c-10.8,10.8-25.1,16.7-40.2,16.7c-6.6,0-13.2-1.2-19.5-3.4c-0.1,0-0.3-0.1-0.4-0.2c0,0,0,0-0.1,0    c-7.5-2.8-14.3-7.2-20.2-13.1c-10.8-10.8-16.7-25.1-16.7-40.2c0-6.7,1.2-13.2,3.4-19.5c0.1-0.2,0.1-0.4,0.2-0.5    c2.8-7.5,7.2-14.3,13.1-20.2c10.8-10.8,25.1-16.7,40.2-16.7c6.7,0,13.2,1.1,19.5,3.4c4,1.5,6.1,5.9,4.6,10c-1.5,4-5.9,6.1-10,4.6    c-4.6-1.6-9.3-2.5-14.2-2.5c-17.8,0-33,11.3-38.9,27.1c0,0,0,0.1,0,0.1c-1.7,4.6-2.5,9.3-2.5,14.2c0,17.8,11.3,33.1,27.2,38.9    c0,0,0,0,0,0c4.6,1.7,9.3,2.5,14.2,2.5c17.8,0,33-11.3,38.9-27.1c1-3.1,3.9-5.2,7.3-5.2C464.9,137.8,468.4,141.3,468.4,145.5z"/>
		<g>
			
				<linearGradient id="SVGID_00000031894451682401848050000000380007889036424100_" gradientUnits="userSpaceOnUse" x1="388.8642" y1="114.0745" x2="478.2842" y2="114.0745">
				<stop offset="0" style="stop-color:#4481EB"/>
				<stop offset="1" style="stop-color:#003366"/>
			</linearGradient>
			<path style="fill:url(#SVGID_00000031894451682401848050000000380007889036424100_);" d="M414.4,141.1c-1.9,0-3.7-0.7-5.1-2.1     L391,120.6c-2.8-2.8-2.8-7.4,0-10.2c2.8-2.8,7.4-2.8,10.2,0l14.1,14.1L467,88.3c3.2-2.3,7.7-1.5,10,1.8c2.3,3.3,1.5,7.7-1.8,10     l-56.7,39.7C417.3,140.7,415.9,141.1,414.4,141.1z"/>
		</g>
	</g>
</g>
</svg>